<svg width="120" height="87" viewBox="0 0 120 87" fill="none" xmlns="http://www.w3.org/2000/svg">
<g clip-path="url(#clip0)">
<path d="M14.3902 41.847C14.8102 42.3992 15.2577 42.9502 15.7327 43.5C24.1852 53.2984 59.7077 80.6363 59.7077 80.6363C59.7077 80.6363 93.9152 54.7375 103.535 44.3192L106.618 40.455C118.08 23.6785 106.143 6.36368 86.8377 6.36368C81.2032 6.22584 75.64 7.3094 70.8594 9.47583C66.0787 11.6423 62.2979 14.7931 60.0002 18.5256C57.7024 14.7931 53.9216 11.6423 49.1409 9.47583C44.3603 7.3094 38.7971 6.22584 33.1627 6.36368C15.0002 6.36368 3.36765 21.6757 11.5802 37.4535L14.3902 41.847Z" fill="#EA4867"/>
<path d="M118.125 39.0956H109.522C114.535 30.3956 114.022 20.9108 108.022 13.9018C105.858 11.2133 102.766 8.97965 99.0495 7.42052C95.3332 5.86139 91.1211 5.03054 86.8275 5.00971C81.4641 4.90579 76.158 5.8314 71.4469 7.69278C66.7357 9.55415 62.7867 12.2852 60 15.6092C57.2136 12.2834 53.2638 9.55072 48.5512 7.68832C43.8385 5.82591 38.5304 4.89994 33.165 5.00427C29.1205 5.02435 25.1448 5.76523 21.5883 7.16163C18.0317 8.55804 15.0033 10.5671 12.77 13.0119C6.3225 19.7725 5.2225 29.0888 9.825 37.9338C10.0218 38.2485 10.3765 38.4971 10.817 38.629C11.2576 38.761 11.7509 38.7663 12.1966 38.6439C12.6424 38.5216 13.0072 38.2808 13.2168 37.9704C13.4264 37.66 13.4651 37.3035 13.325 36.9731C9.165 28.9637 10.1075 20.5845 15.855 14.558C17.7288 12.465 20.2931 10.7439 23.3155 9.55044C26.338 8.357 29.7233 7.72891 33.165 7.72302C38.4245 7.56768 43.6272 8.56056 48.0995 10.5731C52.5719 12.5857 56.108 15.5253 58.25 19.0113C58.4114 19.2478 58.6608 19.4469 58.97 19.5861C59.2793 19.7253 59.636 19.7991 60 19.7991C60.364 19.7991 60.7207 19.7253 61.03 19.5861C61.3392 19.4469 61.5886 19.2478 61.75 19.0113C63.892 15.5253 67.4281 12.5857 71.9005 10.5731C76.3728 8.56056 81.5755 7.56768 86.835 7.72302C90.4884 7.75074 94.069 8.46715 97.2249 9.80183C100.381 11.1365 103.003 13.0436 104.835 15.3355C110.442 21.8877 110.585 30.923 105.375 39.101H97.66C97.3648 39.1016 97.0739 39.1524 96.8108 39.2493C96.5477 39.3463 96.3196 39.4867 96.145 39.6593L94.7575 41.0404L91.5625 32.4945C91.4576 32.2134 91.2309 31.9643 90.9158 31.7838C90.6007 31.6033 90.2139 31.5011 89.8125 31.4921H89.75C89.3573 31.4924 88.9747 31.5819 88.6558 31.748C88.337 31.9141 88.098 32.1486 87.9725 32.4183L82.5325 44.1615L78.4225 24.5865C78.3588 24.2806 78.153 23.9996 77.8392 23.7899C77.5254 23.5803 77.1223 23.4545 76.6966 23.4333C76.2708 23.4122 75.8479 23.497 75.4976 23.6737C75.1473 23.8504 74.8906 24.1085 74.77 24.4053L68.8425 39.0956H60.9225C60.506 39.0956 60.1013 39.1963 59.7726 39.3818C59.4439 39.5673 59.2098 39.8269 59.1075 40.1196L58.0275 43.2009L52.68 31.7622C52.5568 31.4988 52.3252 31.2691 52.0163 31.1041C51.7073 30.9391 51.3361 30.8468 50.9525 30.8396C50.5674 30.8304 50.1879 30.9083 49.8666 31.0626C49.5454 31.2169 49.2984 31.4399 49.16 31.7006L40.55 47.5418L35.55 16.7493C35.4989 16.4309 35.2943 16.1359 34.9724 15.9163C34.6504 15.6966 34.2317 15.5666 33.7903 15.549C33.3489 15.5314 32.9131 15.6275 32.5599 15.8203C32.2067 16.013 31.9588 16.2901 31.86 16.6025L24.33 40.1885H1.875C1.37772 40.1885 0.900805 40.3317 0.549175 40.5867C0.197544 40.8416 0 41.1874 0 41.5479C0 41.9084 0.197544 42.2542 0.549175 42.5091C0.900805 42.7641 1.37772 42.9073 1.875 42.9073H13.075C13.42 43.3459 13.765 43.7845 14.1425 44.2213C22.5975 54.0125 56.8875 80.4478 58.3425 81.5625C58.5168 81.6969 58.7271 81.8042 58.9605 81.8777C59.1939 81.9513 59.4455 81.9895 59.7 81.9902C59.9531 81.9902 60.2036 81.9532 60.4365 81.8812C60.6694 81.8093 60.8797 81.7039 61.055 81.5715C62.455 80.5094 95.4825 55.4715 105.085 45.0714C105.225 44.9232 105.323 44.7562 105.374 44.5803C105.425 44.4043 105.427 44.2229 105.38 44.0463C105.333 43.8698 105.239 43.7018 105.102 43.5519C104.965 43.4021 104.788 43.2734 104.583 43.1733C104.377 43.0732 104.145 43.0038 103.902 42.969C103.659 42.9341 103.409 42.9346 103.166 42.9704C102.923 43.0062 102.692 43.0765 102.487 43.1774C102.281 43.2782 102.106 43.4076 101.97 43.558C93.635 52.5806 66.17 73.718 59.72 78.6516C53.18 73.5875 24.93 51.4876 17.44 42.9073H25.8225C26.2465 42.9074 26.658 42.8033 26.9899 42.6121C27.3218 42.4208 27.5545 42.1537 27.65 41.8542L33.075 24.8312L37.6975 53.2295C37.7473 53.5302 37.9338 53.8103 38.2276 54.0256C38.5214 54.2409 38.9058 54.3791 39.32 54.4185C39.4029 54.4259 39.4864 54.4296 39.57 54.4293C39.9475 54.4309 40.3169 54.3495 40.6293 54.1958C40.9417 54.0421 41.1825 53.8233 41.32 53.5684L50.7925 36.1539L56.5 48.43C56.6299 48.7075 56.8801 48.9471 57.2132 49.1132C57.5463 49.2792 57.9446 49.3628 58.3485 49.3513C58.7524 49.3399 59.1405 49.2342 59.4548 49.0498C59.769 48.8655 59.9927 48.6125 60.0925 48.3285L62.3725 41.8143H70.25C70.655 41.8144 71.0492 41.7191 71.3733 41.543C71.6974 41.3669 71.9339 41.1193 72.0475 40.8374L76 31.0626L80 50.1138C80.0637 50.4149 80.265 50.6917 80.5717 50.8999C80.8784 51.1082 81.2727 51.2357 81.6912 51.262C82.1098 51.2883 82.5285 51.212 82.8801 51.0452C83.2316 50.8784 83.4957 50.6308 83.63 50.3421L89.5675 37.5278L92.17 44.4823C92.2626 44.7296 92.4498 44.9528 92.7098 45.1263C92.9698 45.2998 93.2922 45.4165 93.6398 45.4629C93.9873 45.5093 94.3459 45.4836 94.6741 45.3887C95.0024 45.2937 95.2869 45.1335 95.495 44.9264L98.6225 41.8143H118.122C118.62 41.8143 119.097 41.6711 119.448 41.4162C119.8 41.1613 119.997 40.8155 119.997 40.455C119.997 40.0944 119.8 39.7487 119.448 39.4937C119.097 39.2388 118.62 39.0956 118.122 39.0956H118.125Z" fill="#1A1A1A"/>
</g>
<defs>
<clipPath id="clip0">
<rect width="120" height="87" fill="white"/>
</clipPath>
</defs>
</svg>
